<?xml version="1.0" encoding="UTF-8" standalone="no"?>
<!DOCTYPE svg PUBLIC "-//W3C//DTD SVG 1.1//EN"
 "http://www.w3.org/Graphics/SVG/1.1/DTD/svg11.dtd">
<!-- Generated by graphviz version 5.0.0 (20220707.1540)
 -->
<!-- Title: dependencies Pages: 1 -->
<svg width="352pt" height="247pt"
 viewBox="0.00 0.00 352.00 246.80" xmlns="http://www.w3.org/2000/svg" xmlns:xlink="http://www.w3.org/1999/xlink">
<g id="graph0" class="graph" transform="scale(1 1) rotate(0) translate(4 242.8)">
<title>dependencies</title>
<polygon fill="white" stroke="transparent" points="-4,4 -4,-242.8 348,-242.8 348,4 -4,4"/>
<text text-anchor="middle" x="172" y="-8.2" font-family="sans-serif" font-size="14.00">dependencies</text>
<g id="clust1" class="cluster">
<title>cluster_WorkersModule</title>
<polygon fill="none" stroke="black" stroke-dasharray="1,5" points="8,-32.8 8,-230.8 336,-230.8 336,-32.8 8,-32.8"/>
</g>
<g id="clust4" class="cluster">
<title>cluster_WorkersModule_exports</title>
<polygon fill="none" stroke="black" points="85,-170.8 85,-222.8 235,-222.8 235,-170.8 85,-170.8"/>
</g>
<g id="clust6" class="cluster">
<title>cluster_WorkersModule_providers</title>
<polygon fill="none" stroke="black" points="132,-40.8 132,-92.8 328,-92.8 328,-40.8 132,-40.8"/>
</g>
<g id="clust3" class="cluster">
<title>cluster_WorkersModule_imports</title>
<polygon fill="none" stroke="black" points="16,-40.8 16,-92.8 124,-92.8 124,-40.8 16,-40.8"/>
</g>
<!-- ScansModule -->
<g id="node1" class="node">
<title>ScansModule</title>
<polygon fill="#8dd3c7" stroke="black" points="116.21,-84.8 113.21,-88.8 92.21,-88.8 89.21,-84.8 23.79,-84.8 23.79,-48.8 116.21,-48.8 116.21,-84.8"/>
<text text-anchor="middle" x="70" y="-62.6" font-family="Times,serif" font-size="14.00">ScansModule</text>
</g>
<!-- WorkersModule -->
<g id="node2" class="node">
<title>WorkersModule</title>
<polygon fill="#8dd3c7" stroke="black" points="213.75,-149.8 210.75,-153.8 189.75,-153.8 186.75,-149.8 106.25,-149.8 106.25,-113.8 213.75,-113.8 213.75,-149.8"/>
<text text-anchor="middle" x="160" y="-127.6" font-family="Times,serif" font-size="14.00">WorkersModule</text>
</g>
<!-- ScansModule&#45;&gt;WorkersModule -->
<g id="edge1" class="edge">
<title>ScansModule&#45;&gt;WorkersModule</title>
<path fill="none" stroke="black" d="M111.12,-84.91C111.12,-84.91 111.12,-103.79 111.12,-103.79"/>
<polygon fill="black" stroke="black" points="107.62,-103.79 111.12,-113.79 114.62,-103.79 107.62,-103.79"/>
</g>
<!-- ScanEventProcessor  -->
<g id="node3" class="node">
<title>ScanEventProcessor </title>
<polygon fill="#fb8072" stroke="black" points="226.8,-214.8 93.2,-214.8 93.2,-178.8 226.8,-178.8 226.8,-214.8"/>
<text text-anchor="middle" x="160" y="-192.6" font-family="Times,serif" font-size="14.00">ScanEventProcessor </text>
</g>
<!-- WorkersModule&#45;&gt;ScanEventProcessor  -->
<g id="edge2" class="edge">
<title>WorkersModule&#45;&gt;ScanEventProcessor </title>
<path fill="none" stroke="black" stroke-dasharray="5,2" d="M160,-149.91C160,-149.91 160,-168.79 160,-168.79"/>
<polygon fill="black" stroke="black" points="156.5,-168.79 160,-178.79 163.5,-168.79 156.5,-168.79"/>
</g>
<!-- ScanEventProcessor -->
<g id="node4" class="node">
<title>ScanEventProcessor</title>
<ellipse fill="#fdb462" stroke="black" cx="230" cy="-66.8" rx="89.76" ry="18"/>
<text text-anchor="middle" x="230" y="-62.6" font-family="Times,serif" font-size="14.00">ScanEventProcessor</text>
</g>
<!-- ScanEventProcessor&#45;&gt;WorkersModule -->
<g id="edge3" class="edge">
<title>ScanEventProcessor&#45;&gt;WorkersModule</title>
<path fill="none" stroke="black" d="M177,-81.55C177,-81.55 177,-103.39 177,-103.39"/>
<polygon fill="black" stroke="black" points="173.5,-103.39 177,-113.39 180.5,-103.39 173.5,-103.39"/>
</g>
</g>
</svg>
