<?xml version="1.0" encoding="UTF-8" standalone="no"?>
<!DOCTYPE svg PUBLIC "-//W3C//DTD SVG 1.1//EN"
 "http://www.w3.org/Graphics/SVG/1.1/DTD/svg11.dtd">
<!-- Generated by graphviz version 5.0.0 (20220707.1540)
 -->
<!-- Title: dependencies Pages: 1 -->
<svg width="533pt" height="247pt"
 viewBox="0.00 0.00 533.00 246.80" xmlns="http://www.w3.org/2000/svg" xmlns:xlink="http://www.w3.org/1999/xlink">
<g id="graph0" class="graph" transform="scale(1 1) rotate(0) translate(4 242.8)">
<title>dependencies</title>
<polygon fill="white" stroke="transparent" points="-4,4 -4,-242.8 529,-242.8 529,4 -4,4"/>
<text text-anchor="middle" x="262.5" y="-8.2" font-family="sans-serif" font-size="14.00">dependencies</text>
<g id="clust1" class="cluster">
<title>cluster_ScansModule</title>
<polygon fill="none" stroke="black" stroke-dasharray="1,5" points="8,-32.8 8,-230.8 517,-230.8 517,-32.8 8,-32.8"/>
</g>
<g id="clust4" class="cluster">
<title>cluster_ScansModule_exports</title>
<polygon fill="none" stroke="black" points="185,-170.8 185,-222.8 325,-222.8 325,-170.8 185,-170.8"/>
</g>
<g id="clust6" class="cluster">
<title>cluster_ScansModule_providers</title>
<polygon fill="none" stroke="black" points="184,-40.8 184,-92.8 509,-92.8 509,-40.8 184,-40.8"/>
</g>
<g id="clust3" class="cluster">
<title>cluster_ScansModule_imports</title>
<polygon fill="none" stroke="black" points="16,-40.8 16,-92.8 176,-92.8 176,-40.8 16,-40.8"/>
</g>
<!-- CacheWrapperModule -->
<g id="node1" class="node">
<title>CacheWrapperModule</title>
<polygon fill="#8dd3c7" stroke="black" points="168,-84.8 165,-88.8 144,-88.8 141,-84.8 24,-84.8 24,-48.8 168,-48.8 168,-84.8"/>
<text text-anchor="middle" x="96" y="-62.6" font-family="Times,serif" font-size="14.00">CacheWrapperModule</text>
</g>
<!-- ScansModule -->
<g id="node2" class="node">
<title>ScansModule</title>
<polygon fill="#8dd3c7" stroke="black" points="301.21,-149.8 298.21,-153.8 277.21,-153.8 274.21,-149.8 208.79,-149.8 208.79,-113.8 301.21,-113.8 301.21,-149.8"/>
<text text-anchor="middle" x="255" y="-127.6" font-family="Times,serif" font-size="14.00">ScansModule</text>
</g>
<!-- CacheWrapperModule&#45;&gt;ScansModule -->
<g id="edge1" class="edge">
<title>CacheWrapperModule&#45;&gt;ScansModule</title>
<path fill="none" stroke="black" d="M96,-84.91C96,-104.14 96,-131.8 96,-131.8 96,-131.8 198.58,-131.8 198.58,-131.8"/>
<polygon fill="black" stroke="black" points="198.58,-135.3 208.58,-131.8 198.58,-128.3 198.58,-135.3"/>
</g>
<!-- ScanEventContext  -->
<g id="node3" class="node">
<title>ScanEventContext </title>
<polygon fill="#fb8072" stroke="black" points="316.7,-214.8 193.3,-214.8 193.3,-178.8 316.7,-178.8 316.7,-214.8"/>
<text text-anchor="middle" x="255" y="-192.6" font-family="Times,serif" font-size="14.00">ScanEventContext </text>
</g>
<!-- ScansModule&#45;&gt;ScanEventContext  -->
<g id="edge2" class="edge">
<title>ScansModule&#45;&gt;ScanEventContext </title>
<path fill="none" stroke="black" stroke-dasharray="5,2" d="M255,-149.91C255,-149.91 255,-168.79 255,-168.79"/>
<polygon fill="black" stroke="black" points="251.5,-168.79 255,-178.79 258.5,-168.79 251.5,-168.79"/>
</g>
<!-- ScanEventContext -->
<g id="node4" class="node">
<title>ScanEventContext</title>
<ellipse fill="#fdb462" stroke="black" cx="418" cy="-66.8" rx="82.82" ry="18"/>
<text text-anchor="middle" x="418" y="-62.6" font-family="Times,serif" font-size="14.00">ScanEventContext</text>
</g>
<!-- ScanEventContext&#45;&gt;ScansModule -->
<g id="edge3" class="edge">
<title>ScanEventContext&#45;&gt;ScansModule</title>
<path fill="none" stroke="black" d="M418,-84.91C418,-104.14 418,-131.8 418,-131.8 418,-131.8 311.27,-131.8 311.27,-131.8"/>
<polygon fill="black" stroke="black" points="311.27,-128.3 301.27,-131.8 311.27,-135.3 311.27,-128.3"/>
</g>
<!-- ScansService -->
<g id="node5" class="node">
<title>ScansService</title>
<ellipse fill="#fdb462" stroke="black" cx="255" cy="-66.8" rx="62.55" ry="18"/>
<text text-anchor="middle" x="255" y="-62.6" font-family="Times,serif" font-size="14.00">ScansService</text>
</g>
<!-- ScansService&#45;&gt;ScansModule -->
<g id="edge4" class="edge">
<title>ScansService&#45;&gt;ScansModule</title>
<path fill="none" stroke="black" d="M255,-84.91C255,-84.91 255,-103.79 255,-103.79"/>
<polygon fill="black" stroke="black" points="251.5,-103.79 255,-113.79 258.5,-103.79 251.5,-103.79"/>
</g>
</g>
</svg>
