<?xml version="1.0" encoding="UTF-8" standalone="no"?>
<!DOCTYPE svg PUBLIC "-//W3C//DTD SVG 1.1//EN"
 "http://www.w3.org/Graphics/SVG/1.1/DTD/svg11.dtd">
<!-- Generated by graphviz version 5.0.0 (20220707.1540)
 -->
<!-- Title: dependencies Pages: 1 -->
<svg width="252pt" height="247pt"
 viewBox="0.00 0.00 252.00 246.80" xmlns="http://www.w3.org/2000/svg" xmlns:xlink="http://www.w3.org/1999/xlink">
<g id="graph0" class="graph" transform="scale(1 1) rotate(0) translate(4 242.8)">
<title>dependencies</title>
<polygon fill="white" stroke="transparent" points="-4,4 -4,-242.8 248,-242.8 248,4 -4,4"/>
<text text-anchor="middle" x="122" y="-8.2" font-family="sans-serif" font-size="14.00">dependencies</text>
<g id="clust1" class="cluster">
<title>cluster_CacheWrapperModule</title>
<polygon fill="none" stroke="black" stroke-dasharray="1,5" points="8,-32.8 8,-230.8 236,-230.8 236,-32.8 8,-32.8"/>
</g>
<g id="clust4" class="cluster">
<title>cluster_CacheWrapperModule_exports</title>
<polygon fill="none" stroke="black" points="41,-170.8 41,-222.8 203,-222.8 203,-170.8 41,-170.8"/>
</g>
<g id="clust6" class="cluster">
<title>cluster_CacheWrapperModule_providers</title>
<polygon fill="none" stroke="black" points="16,-40.8 16,-92.8 228,-92.8 228,-40.8 16,-40.8"/>
</g>
<!-- CacheWrapperService  -->
<g id="node1" class="node">
<title>CacheWrapperService </title>
<polygon fill="#fb8072" stroke="black" points="194.93,-214.8 49.07,-214.8 49.07,-178.8 194.93,-178.8 194.93,-214.8"/>
<text text-anchor="middle" x="122" y="-192.6" font-family="Times,serif" font-size="14.00">CacheWrapperService </text>
</g>
<!-- CacheWrapperModule -->
<g id="node2" class="node">
<title>CacheWrapperModule</title>
<polygon fill="#8dd3c7" stroke="black" points="194,-149.8 191,-153.8 170,-153.8 167,-149.8 50,-149.8 50,-113.8 194,-113.8 194,-149.8"/>
<text text-anchor="middle" x="122" y="-127.6" font-family="Times,serif" font-size="14.00">CacheWrapperModule</text>
</g>
<!-- CacheWrapperModule&#45;&gt;CacheWrapperService  -->
<g id="edge1" class="edge">
<title>CacheWrapperModule&#45;&gt;CacheWrapperService </title>
<path fill="none" stroke="black" stroke-dasharray="5,2" d="M122,-149.91C122,-149.91 122,-168.79 122,-168.79"/>
<polygon fill="black" stroke="black" points="118.5,-168.79 122,-178.79 125.5,-168.79 118.5,-168.79"/>
</g>
<!-- CacheWrapperService -->
<g id="node3" class="node">
<title>CacheWrapperService</title>
<ellipse fill="#fdb462" stroke="black" cx="122" cy="-66.8" rx="97.79" ry="18"/>
<text text-anchor="middle" x="122" y="-62.6" font-family="Times,serif" font-size="14.00">CacheWrapperService</text>
</g>
<!-- CacheWrapperService&#45;&gt;CacheWrapperModule -->
<g id="edge2" class="edge">
<title>CacheWrapperService&#45;&gt;CacheWrapperModule</title>
<path fill="none" stroke="black" d="M122,-84.91C122,-84.91 122,-103.79 122,-103.79"/>
<polygon fill="black" stroke="black" points="118.5,-103.79 122,-113.79 125.5,-103.79 118.5,-103.79"/>
</g>
</g>
</svg>
