<?xml version="1.0" encoding="UTF-8" standalone="no"?>
<!DOCTYPE svg PUBLIC "-//W3C//DTD SVG 1.1//EN"
 "http://www.w3.org/Graphics/SVG/1.1/DTD/svg11.dtd">
<!-- Generated by graphviz version 5.0.0 (20220707.1540)
 -->
<!-- Title: dependencies Pages: 1 -->
<svg width="376pt" height="247pt"
 viewBox="0.00 0.00 376.00 246.80" xmlns="http://www.w3.org/2000/svg" xmlns:xlink="http://www.w3.org/1999/xlink">
<g id="graph0" class="graph" transform="scale(1 1) rotate(0) translate(4 242.8)">
<title>dependencies</title>
<polygon fill="white" stroke="transparent" points="-4,4 -4,-242.8 372,-242.8 372,4 -4,4"/>
<text text-anchor="middle" x="184" y="-8.2" font-family="sans-serif" font-size="14.00">dependencies</text>
<g id="clust1" class="cluster">
<title>cluster_EventQueueModule</title>
<polygon fill="none" stroke="black" stroke-dasharray="1,5" points="8,-32.8 8,-230.8 360,-230.8 360,-32.8 8,-32.8"/>
</g>
<g id="clust4" class="cluster">
<title>cluster_EventQueueModule_exports</title>
<polygon fill="none" stroke="black" points="94,-170.8 94,-222.8 250,-222.8 250,-170.8 94,-170.8"/>
</g>
<g id="clust6" class="cluster">
<title>cluster_EventQueueModule_providers</title>
<polygon fill="none" stroke="black" points="148,-40.8 148,-92.8 352,-92.8 352,-40.8 148,-40.8"/>
</g>
<g id="clust3" class="cluster">
<title>cluster_EventQueueModule_imports</title>
<polygon fill="none" stroke="black" points="16,-40.8 16,-92.8 140,-92.8 140,-40.8 16,-40.8"/>
</g>
<!-- WorkersModule -->
<g id="node1" class="node">
<title>WorkersModule</title>
<polygon fill="#8dd3c7" stroke="black" points="131.75,-84.8 128.75,-88.8 107.75,-88.8 104.75,-84.8 24.25,-84.8 24.25,-48.8 131.75,-48.8 131.75,-84.8"/>
<text text-anchor="middle" x="78" y="-62.6" font-family="Times,serif" font-size="14.00">WorkersModule</text>
</g>
<!-- EventQueueModule -->
<g id="node2" class="node">
<title>EventQueueModule</title>
<polygon fill="#8dd3c7" stroke="black" points="236.25,-149.8 233.25,-153.8 212.25,-153.8 209.25,-149.8 107.75,-149.8 107.75,-113.8 236.25,-113.8 236.25,-149.8"/>
<text text-anchor="middle" x="172" y="-127.6" font-family="Times,serif" font-size="14.00">EventQueueModule</text>
</g>
<!-- WorkersModule&#45;&gt;EventQueueModule -->
<g id="edge1" class="edge">
<title>WorkersModule&#45;&gt;EventQueueModule</title>
<path fill="none" stroke="black" d="M119.75,-84.91C119.75,-84.91 119.75,-103.79 119.75,-103.79"/>
<polygon fill="black" stroke="black" points="116.25,-103.79 119.75,-113.79 123.25,-103.79 116.25,-103.79"/>
</g>
<!-- EventQueueProducer  -->
<g id="node3" class="node">
<title>EventQueueProducer </title>
<polygon fill="#fb8072" stroke="black" points="241.73,-214.8 102.27,-214.8 102.27,-178.8 241.73,-178.8 241.73,-214.8"/>
<text text-anchor="middle" x="172" y="-192.6" font-family="Times,serif" font-size="14.00">EventQueueProducer </text>
</g>
<!-- EventQueueModule&#45;&gt;EventQueueProducer  -->
<g id="edge2" class="edge">
<title>EventQueueModule&#45;&gt;EventQueueProducer </title>
<path fill="none" stroke="black" stroke-dasharray="5,2" d="M172,-149.91C172,-149.91 172,-168.79 172,-168.79"/>
<polygon fill="black" stroke="black" points="168.5,-168.79 172,-178.79 175.5,-168.79 168.5,-168.79"/>
</g>
<!-- EventQueueProducer -->
<g id="node4" class="node">
<title>EventQueueProducer</title>
<ellipse fill="#fdb462" stroke="black" cx="250" cy="-66.8" rx="93.75" ry="18"/>
<text text-anchor="middle" x="250" y="-62.6" font-family="Times,serif" font-size="14.00">EventQueueProducer</text>
</g>
<!-- EventQueueProducer&#45;&gt;EventQueueModule -->
<g id="edge3" class="edge">
<title>EventQueueProducer&#45;&gt;EventQueueModule</title>
<path fill="none" stroke="black" d="M196.37,-81.88C196.37,-81.88 196.37,-103.56 196.37,-103.56"/>
<polygon fill="black" stroke="black" points="192.87,-103.56 196.37,-113.56 199.87,-103.56 192.87,-103.56"/>
</g>
</g>
</svg>
